<?xml version="1.0" encoding="UTF-8" standalone="no" ?>
<!DOCTYPE svg PUBLIC "-//W3C//DTD SVG 1.1//EN" "http://www.w3.org/Graphics/SVG/1.1/DTD/svg11.dtd">
<svg xmlns="http://www.w3.org/2000/svg" xmlns:xlink="http://www.w3.org/1999/xlink" version="1.1" width="95" height="125" viewBox="0 0 95 125" xml:space="preserve">
<desc>Created with Fabric.js 4.6.0</desc>
<defs>
</defs>
<g transform="matrix(1 0 0 1.01 47.52 62.72)" id="QcNWMmKDxV4YVrwLnFg3W"  >
<g style="" vector-effect="non-scaling-stroke"   >
		<g transform="matrix(0.72 0 0 0.77 -0.63 50.57)" id="rPc2ih2tROcmdUneKZcUC"  >
<path style="stroke: rgb(32,229,121); stroke-width: 0; stroke-dasharray: none; stroke-linecap: butt; stroke-dashoffset: 0; stroke-linejoin: miter; stroke-miterlimit: 4; fill: rgb(133,95,62); fill-rule: nonzero; opacity: 1;" vector-effect="non-scaling-stroke"  transform=" translate(0, 0)" d="M -14.05452 -14.05452 L 14.05451 -14.05452 L 14.05451 14.05451 L -14.05452 14.05451 z" stroke-linecap="round" />
</g>
		<g transform="matrix(0.38 0 0 0.47 14.76 -30.81)" id="n9gtXYF54H8aKMaCBeuru"  >
<path style="stroke: none; stroke-width: 1; stroke-dasharray: none; stroke-linecap: butt; stroke-dashoffset: 0; stroke-linejoin: miter; stroke-miterlimit: 4; fill: rgb(17,137,17); fill-rule: nonzero; opacity: 1;" vector-effect="non-scaling-stroke"  transform=" translate(-40, -40)" d="M 0 0 L 80 80 L 0 80 L 0 0 z" stroke-linecap="round" />
</g>
		<g transform="matrix(0.52 0 0 0.65 20.85 -11.01)" id="tW7wL6BHNN5EfqsKW14rY"  >
<path style="stroke: none; stroke-width: 1; stroke-dasharray: none; stroke-linecap: butt; stroke-dashoffset: 0; stroke-linejoin: miter; stroke-miterlimit: 4; fill: rgb(17,137,17); fill-rule: nonzero; opacity: 1;" vector-effect="non-scaling-stroke"  transform=" translate(0, 0)" d="M -40 -40 L 40 40 L -40 40 z" stroke-linecap="round" />
</g>
		<g transform="matrix(0.59 0 0 0.74 23.43 10.23)" id="ZUzszNIxEgSFe72gf0ITc"  >
<path style="stroke: none; stroke-width: 1; stroke-dasharray: none; stroke-linecap: butt; stroke-dashoffset: 0; stroke-linejoin: miter; stroke-miterlimit: 4; fill: rgb(17,137,17); fill-rule: nonzero; opacity: 1;" vector-effect="non-scaling-stroke"  transform=" translate(-40, -40)" d="M 0 0 L 80 80 L 0 80 L 0 0 z" stroke-linecap="round" />
</g>
		<g transform="matrix(-0.37 0 0 0.47 -14.96 -30.87)" id="NdY6EhZQmsuBfJUZ1kk1e"  >
<path style="stroke: none; stroke-width: 1; stroke-dasharray: none; stroke-linecap: butt; stroke-dashoffset: 0; stroke-linejoin: miter; stroke-miterlimit: 4; fill: rgb(33,183,33); fill-rule: nonzero; opacity: 1;" vector-effect="non-scaling-stroke"  transform=" translate(-40, -40)" d="M 0 0 L 80 80 L 0 80 L 0 0 z" stroke-linecap="round" />
</g>
		<g transform="matrix(-0.53 0 0 0.65 -21.05 -11.07)" id="e97KGoLYpcP0pgthzLmSM"  >
<path style="stroke: none; stroke-width: 1; stroke-dasharray: none; stroke-linecap: butt; stroke-dashoffset: 0; stroke-linejoin: miter; stroke-miterlimit: 4; fill: rgb(33,183,33); fill-rule: nonzero; opacity: 1;" vector-effect="non-scaling-stroke"  transform=" translate(0, 0)" d="M -40 -40 L 40 40 L -40 40 z" stroke-linecap="round" />
</g>
		<g transform="matrix(1.09 0 0 1.05 -0.07 -50.17)" id="8z9i105evus41E6pmBulR"  >
<path style="stroke: rgb(190,130,131); stroke-width: 0; stroke-dasharray: none; stroke-linecap: butt; stroke-dashoffset: 0; stroke-linejoin: miter; stroke-miterlimit: 4; fill: rgb(236,228,64); fill-rule: nonzero; opacity: 1;" vector-effect="non-scaling-stroke"  transform=" translate(-11.29, -10.73)" d="M 11.286 0 L 14.634229999999999 7.2588 L 22.572419999999997 8.19987 L 16.703609999999998 13.62714 L 18.261419999999998 21.46763 L 11.286209999999997 17.56314 L 4.310999999999997 21.46763 L 5.868809999999997 13.62714 L -2.6645352591003757e-15 8.19987 L 7.938189999999997 7.258800000000001 z" stroke-linecap="round" />
</g>
		<g transform="matrix(-0.59 0 0 0.74 -23.53 10.36)" id="MBuwT7W1Wost1riABXHCQ"  >
<path style="stroke: none; stroke-width: 1; stroke-dasharray: none; stroke-linecap: butt; stroke-dashoffset: 0; stroke-linejoin: miter; stroke-miterlimit: 4; fill: rgb(33,183,33); fill-rule: nonzero; opacity: 1;" vector-effect="non-scaling-stroke"  transform=" translate(-40, -40)" d="M 0 0 L 80 80 L 0 80 L 0 0 z" stroke-linecap="round" />
</g>
</g>
</g>
</svg>